<svg width="157" height="50" viewBox="0 0 157 50" fill="none" xmlns="http://www.w3.org/2000/svg">
<path fill-rule="evenodd" clip-rule="evenodd" d="M38.9633 31.1392C36.3661 31.1481 33.7894 30.6785 31.3623 29.7539C31.3623 31.7039 32.6588 34.375 38.9633 34.375C45.2679 34.375 46.5622 31.7039 46.5622 29.7539C44.1355 30.6771 41.5598 31.1467 38.9633 31.1392Z" fill="#DC1F27"/>
<path d="M38.9633 31.1392C36.3661 31.1481 33.7894 30.6785 31.3623 29.7539C31.3623 31.7039 32.6588 34.375 38.9633 34.375C45.2679 34.375 46.5622 31.7039 46.5622 29.7539C44.1355 30.6771 41.5598 31.1467 38.9633 31.1392Z" fill="#DC1F27"/>
<mask id="mask0_145_992" style="mask-type:luminance" maskUnits="userSpaceOnUse" x="31" y="29" width="16" height="6">
<path d="M38.9633 31.1392C36.3661 31.1481 33.7894 30.6785 31.3623 29.7539C31.3623 31.7039 32.6588 34.375 38.9633 34.375C45.2679 34.375 46.5622 31.7039 46.5622 29.7539C44.1355 30.6771 41.5598 31.1467 38.9633 31.1392Z" fill="white"/>
</mask>
<g mask="url(#mask0_145_992)">
<path d="M46.4988 29.8174H31.3496V34.4385H46.4988V29.8174Z" fill="#DC1F27"/>
</g>
<path fill-rule="evenodd" clip-rule="evenodd" d="M7.59891 34.3623C13.9035 34.3623 15.1999 31.6912 15.1999 29.7412C10.3016 31.5882 4.89831 31.5882 0 29.7412C0 31.6912 1.29645 34.3623 7.59891 34.3623Z" fill="#DC1F27"/>
<path d="M7.59891 34.3623C13.9035 34.3623 15.1999 31.6912 15.1999 29.7412C10.3016 31.5882 4.89831 31.5882 0 29.7412C0 31.6912 1.29645 34.3623 7.59891 34.3623Z" fill="#DC1F27"/>
<mask id="mask1_145_992" style="mask-type:luminance" maskUnits="userSpaceOnUse" x="0" y="29" width="16" height="6">
<path d="M7.59891 34.3623C13.9035 34.3623 15.1999 31.6912 15.1999 29.7412C10.3016 31.5882 4.89831 31.5882 0 29.7412C0 31.6912 1.29645 34.3623 7.59891 34.3623Z" fill="white"/>
</mask>
<g mask="url(#mask1_145_992)">
<path d="M15.1746 29.8174H0.0253906V34.4385H15.1746V29.8174Z" fill="#DC1F27"/>
</g>
<path fill-rule="evenodd" clip-rule="evenodd" d="M20.9545 38.547C20.6355 38.5423 20.3267 38.6593 20.091 38.8742C19.8552 39.0891 19.7102 39.3858 19.6855 39.7039C19.6775 39.869 19.7031 40.034 19.7606 40.1889C19.8182 40.3438 19.9066 40.4855 20.0205 40.6053C20.1343 40.7251 20.2713 40.8205 20.4231 40.8859C20.5749 40.9512 20.7384 40.9851 20.9037 40.9855H25.6073C25.9266 40.9902 26.2357 40.8729 26.4715 40.6575C26.7073 40.4422 26.852 40.145 26.8762 39.8265C26.8828 39.6624 26.8561 39.4987 26.7979 39.3451C26.7396 39.1915 26.651 39.0513 26.5372 38.9328C26.4235 38.8143 26.287 38.72 26.1359 38.6555C25.9848 38.591 25.8223 38.5577 25.658 38.5576L20.9545 38.547Z" fill="#DC1F27"/>
<path d="M20.9545 38.547C20.6355 38.5423 20.3267 38.6593 20.091 38.8742C19.8552 39.0891 19.7102 39.3858 19.6855 39.7039C19.6775 39.869 19.7031 40.034 19.7606 40.1889C19.8182 40.3438 19.9066 40.4855 20.0205 40.6053C20.1343 40.7251 20.2713 40.8205 20.4231 40.8859C20.5749 40.9512 20.7384 40.9851 20.9037 40.9855H25.6073C25.9266 40.9902 26.2357 40.8729 26.4715 40.6575C26.7073 40.4422 26.852 40.145 26.8762 39.8265C26.8828 39.6624 26.8561 39.4987 26.7979 39.3451C26.7396 39.1915 26.651 39.0513 26.5372 38.9328C26.4235 38.8143 26.287 38.72 26.1359 38.6555C25.9848 38.591 25.8223 38.5577 25.658 38.5576L20.9545 38.547Z" fill="#DC1F27"/>
<mask id="mask2_145_992" style="mask-type:luminance" maskUnits="userSpaceOnUse" x="19" y="38" width="8" height="3">
<path d="M20.9545 38.547C20.6355 38.5423 20.3267 38.6593 20.091 38.8742C19.8552 39.0891 19.7102 39.3858 19.6855 39.7039C19.6775 39.869 19.7031 40.034 19.7606 40.1889C19.8182 40.3438 19.9066 40.4855 20.0205 40.6053C20.1343 40.7251 20.2713 40.8205 20.4231 40.8859C20.5749 40.9512 20.7384 40.9851 20.9037 40.9855H25.6073C25.9266 40.9902 26.2357 40.8729 26.4715 40.6575C26.7073 40.4422 26.852 40.145 26.8762 39.8265C26.8828 39.6624 26.8561 39.4987 26.7979 39.3451C26.7396 39.1915 26.651 39.0513 26.5372 38.9328C26.4235 38.8143 26.287 38.72 26.1359 38.6555C25.9848 38.591 25.8223 38.5577 25.658 38.5576L20.9545 38.547Z" fill="white"/>
</mask>
<g mask="url(#mask2_145_992)">
<path d="M26.9861 38.5469H19.6685V40.9854H26.9861V38.5469Z" fill="#DC1F27"/>
</g>
<path fill-rule="evenodd" clip-rule="evenodd" d="M32.1193 41.8849H14.464C14.1623 41.8802 13.8691 41.9846 13.6383 42.1789C13.4075 42.3732 13.2546 42.6443 13.2077 42.9424C13.186 43.1167 13.2018 43.2936 13.2541 43.4613C13.3064 43.629 13.394 43.7835 13.511 43.9146C13.628 44.0456 13.7717 44.1501 13.9324 44.2209C14.0931 44.2918 14.2672 44.3275 14.4428 44.3255H32.0982C32.3998 44.3302 32.6931 44.2258 32.9239 44.0315C33.1547 43.8372 33.3076 43.5661 33.3544 43.2681C33.3762 43.0938 33.3604 42.9168 33.308 42.7491C33.2557 42.5814 33.1681 42.4269 33.0511 42.2959C32.9341 42.1649 32.7904 42.0604 32.6297 41.9895C32.469 41.9186 32.295 41.883 32.1193 41.8849Z" fill="#DC1F27"/>
<path d="M32.1193 41.8849H14.464C14.1623 41.8802 13.8691 41.9846 13.6383 42.1789C13.4075 42.3732 13.2546 42.6443 13.2077 42.9424C13.186 43.1167 13.2018 43.2936 13.2541 43.4613C13.3064 43.629 13.394 43.7835 13.511 43.9146C13.628 44.0456 13.7717 44.1501 13.9324 44.2209C14.0931 44.2918 14.2672 44.3275 14.4428 44.3255H32.0982C32.3998 44.3302 32.6931 44.2258 32.9239 44.0315C33.1547 43.8372 33.3076 43.5661 33.3544 43.2681C33.3762 43.0938 33.3604 42.9168 33.308 42.7491C33.2557 42.5814 33.1681 42.4269 33.0511 42.2959C32.9341 42.1649 32.7904 42.0604 32.6297 41.9895C32.469 41.9186 32.295 41.883 32.1193 41.8849Z" fill="#DC1F27"/>
<mask id="mask3_145_992" style="mask-type:luminance" maskUnits="userSpaceOnUse" x="13" y="41" width="21" height="4">
<path d="M32.1193 41.8849H14.464C14.1623 41.8802 13.8691 41.9846 13.6383 42.1789C13.4075 42.3732 13.2546 42.6443 13.2077 42.9424C13.186 43.1167 13.2018 43.2936 13.2541 43.4613C13.3064 43.629 13.394 43.7835 13.511 43.9146C13.628 44.0456 13.7717 44.1501 13.9324 44.2209C14.0931 44.2918 14.2672 44.3275 14.4428 44.3255H32.0982C32.3998 44.3302 32.6931 44.2258 32.9239 44.0315C33.1547 43.8372 33.3076 43.5661 33.3544 43.2681C33.3762 43.0938 33.3604 42.9168 33.308 42.7491C33.2557 42.5814 33.1681 42.4269 33.0511 42.2959C32.9341 42.1649 32.7904 42.0604 32.6297 41.9895C32.469 41.9186 32.295 41.883 32.1193 41.8849Z" fill="white"/>
</mask>
<g mask="url(#mask3_145_992)">
<path d="M33.4032 41.8848H13.248V44.3233H33.4032V41.8848Z" fill="#DC1F27"/>
</g>
<path fill-rule="evenodd" clip-rule="evenodd" d="M23.281 11.9988C23.8243 11.9967 24.3548 11.8337 24.8056 11.5303C25.2563 11.2269 25.6071 10.7968 25.8135 10.2942C26.02 9.79165 26.0729 9.23918 25.9657 8.70654C25.8584 8.17391 25.5957 7.68501 25.2108 7.30155C24.8258 6.9181 24.3359 6.65729 23.8029 6.55206C23.2699 6.44683 22.7176 6.50189 22.2158 6.71029C21.714 6.9187 21.2853 7.2711 20.9836 7.723C20.682 8.1749 20.521 8.70605 20.521 9.24938C20.521 9.61132 20.5925 9.96971 20.7313 10.304C20.8701 10.6382 21.0736 10.9418 21.33 11.1972C21.5864 11.4527 21.8908 11.655 22.2256 11.7925C22.5604 11.9301 22.919 12.0002 23.281 11.9988Z" fill="#DC1F27"/>
<path d="M23.281 11.9988C23.8243 11.9967 24.3548 11.8337 24.8056 11.5303C25.2563 11.2269 25.6071 10.7968 25.8135 10.2942C26.02 9.79165 26.0729 9.23918 25.9657 8.70654C25.8584 8.17391 25.5957 7.68501 25.2108 7.30155C24.8258 6.9181 24.3359 6.65729 23.8029 6.55206C23.2699 6.44683 22.7176 6.50189 22.2158 6.71029C21.714 6.9187 21.2853 7.2711 20.9836 7.723C20.682 8.1749 20.521 8.70605 20.521 9.24938C20.521 9.61132 20.5925 9.96971 20.7313 10.304C20.8701 10.6382 21.0736 10.9418 21.33 11.1972C21.5864 11.4527 21.8908 11.655 22.2256 11.7925C22.5604 11.9301 22.919 12.0002 23.281 11.9988Z" fill="#DC1F27"/>
<mask id="mask4_145_992" style="mask-type:luminance" maskUnits="userSpaceOnUse" x="20" y="6" width="7" height="6">
<path d="M23.281 11.9988C23.8243 11.9967 24.3548 11.8337 24.8056 11.5303C25.2563 11.2269 25.6071 10.7968 25.8135 10.2942C26.02 9.79165 26.0729 9.23918 25.9657 8.70654C25.8584 8.17391 25.5957 7.68501 25.2108 7.30155C24.8258 6.9181 24.3359 6.65729 23.8029 6.55206C23.2699 6.44683 22.7176 6.50189 22.2158 6.71029C21.714 6.9187 21.2853 7.2711 20.9836 7.723C20.682 8.1749 20.521 8.70605 20.521 9.24938C20.521 9.61132 20.5925 9.96971 20.7313 10.304C20.8701 10.6382 21.0736 10.9418 21.33 11.1972C21.5864 11.4527 21.8908 11.655 22.2256 11.7925C22.5604 11.9301 22.919 12.0002 23.281 11.9988Z" fill="white"/>
</mask>
<g mask="url(#mask4_145_992)">
<path d="M26.0854 6.45312H20.5654V11.9731H26.0854V6.45312Z" fill="#DC1F27"/>
</g>
<path fill-rule="evenodd" clip-rule="evenodd" d="M17.651 15.233C18.3523 15.2391 19.0506 15.3257 19.7321 15.491C20.2041 14.7007 20.8229 14.008 21.5552 13.4501C20.3199 13.0025 19.0177 12.7679 17.7039 12.7565C12.9538 12.6655 8.15079 16.5633 6.57306 15.7596L6.61113 15.6454C8.21636 16.0177 8.78104 13.6045 7.18851 13.2175C6.70726 13.1064 6.20415 13.1367 5.73977 13.305C5.2754 13.4732 4.86958 13.7721 4.5712 14.1657C4.27282 14.5593 4.09461 15.0308 4.05804 15.5234C4.02147 16.0159 4.1281 16.5085 4.36509 16.9419C4.78807 17.6863 5.39083 18.0332 6.20084 18.2383L6.17546 18.2764C4.50679 21.4742 1.01505 28.1996 1.94562 26.8778L6.848 20.2285C6.848 21.6793 7.0595 26.6219 7.26041 28.8172C7.38731 30.2151 7.81241 30.2278 7.9393 28.8172C8.1508 26.6092 8.35171 21.6666 8.35171 20.2285L13.2541 26.8778C14.1656 28.1996 10.6866 21.4742 9.02426 18.2764L8.89525 18.0459C11.6045 17.2359 14.4681 15.1696 17.6637 15.233H17.651Z" fill="#DC1F27"/>
<path d="M17.651 15.233C18.3523 15.2391 19.0506 15.3257 19.7321 15.491C20.2041 14.7007 20.8229 14.008 21.5552 13.4501C20.3199 13.0025 19.0177 12.7679 17.7039 12.7565C12.9538 12.6655 8.15079 16.5633 6.57306 15.7596L6.61113 15.6454C8.21636 16.0177 8.78104 13.6045 7.18851 13.2175C6.70726 13.1064 6.20415 13.1367 5.73977 13.305C5.2754 13.4732 4.86958 13.7721 4.5712 14.1657C4.27282 14.5593 4.09461 15.0308 4.05804 15.5234C4.02147 16.0159 4.1281 16.5085 4.36509 16.9419C4.78807 17.6863 5.39083 18.0332 6.20084 18.2383L6.17546 18.2764C4.50679 21.4742 1.01505 28.1996 1.94562 26.8778L6.848 20.2285C6.848 21.6793 7.0595 26.6219 7.26041 28.8172C7.38731 30.2151 7.81241 30.2278 7.9393 28.8172C8.1508 26.6092 8.35171 21.6666 8.35171 20.2285L13.2541 26.8778C14.1656 28.1996 10.6866 21.4742 9.02426 18.2764L8.89525 18.0459C11.6045 17.2359 14.4681 15.1696 17.6637 15.233" fill="#DC1F27"/>
<mask id="mask5_145_992" style="mask-type:luminance" maskUnits="userSpaceOnUse" x="1" y="12" width="21" height="18">
<path d="M17.651 15.233C18.3523 15.2391 19.0506 15.3257 19.7321 15.491C20.2041 14.7007 20.8229 14.008 21.5552 13.4501C20.3199 13.0025 19.0177 12.7679 17.7039 12.7565C12.9538 12.6655 8.15079 16.5633 6.57306 15.7596L6.61113 15.6454C8.21636 16.0177 8.78104 13.6045 7.18851 13.2175C6.70726 13.1064 6.20415 13.1367 5.73977 13.305C5.2754 13.4732 4.86958 13.7721 4.5712 14.1657C4.27282 14.5593 4.09461 15.0308 4.05804 15.5234C4.02147 16.0159 4.1281 16.5085 4.36509 16.9419C4.78807 17.6863 5.39083 18.0332 6.20084 18.2383L6.17546 18.2764C4.50679 21.4742 1.01505 28.1996 1.94562 26.8778L6.848 20.2285C6.848 21.6793 7.0595 26.6219 7.26041 28.8172C7.38731 30.2151 7.81241 30.2278 7.9393 28.8172C8.1508 26.6092 8.35171 21.6666 8.35171 20.2285L13.2541 26.8778C14.1656 28.1996 10.6866 21.4742 9.02426 18.2764L8.89525 18.0459C11.6045 17.2359 14.4681 15.1696 17.6637 15.233" fill="white"/>
</mask>
<g mask="url(#mask5_145_992)">
<path d="M21.5933 12.6162H1.05322V30.2039H21.5933V12.6162Z" fill="#DC1F27"/>
</g>
<path fill-rule="evenodd" clip-rule="evenodd" d="M23.2812 17.9794C23.628 18.6985 23.6407 19.3795 23.4356 20.2656C23.3975 20.4581 23.3319 20.6505 23.2812 20.8557C22.9597 19.8151 22.8455 18.9036 23.2812 17.9794ZM23.2685 14.384C22.3862 15.0067 21.6536 15.818 21.124 16.7591C20.8106 17.3455 20.6098 17.9853 20.5318 18.6456C20.5191 18.709 20.5191 18.7746 20.5064 18.838C20.4894 19.0342 20.4851 19.2314 20.4937 19.4281C20.5191 20.9826 21.1599 22.5476 21.8917 24.1275C20.1722 27.9026 17.2071 35.548 22.7905 37.7729H23.7274C26.8744 36.504 27.3355 33.5431 26.7835 30.4299C26.4916 28.9313 26.0531 27.4649 25.4744 26.052C24.9224 27.2723 24.4338 28.4144 23.9939 29.4359C23.9812 29.5903 25.4744 33.7757 23.2621 35.2118C21.0288 33.763 22.4162 29.4232 23.2621 27.2533V27.266C23.9812 25.5085 25.4574 22.5688 25.8423 20.8472C26.2273 19.1257 26.0348 17.6516 25.0725 16.1944C26.2489 15.5867 27.5553 15.2739 28.8794 15.2829C32.075 15.2173 34.9386 17.273 37.633 18.0809L37.5061 18.3114C35.8375 21.5092 32.3436 28.2346 33.2763 26.9128L38.1787 20.2635C38.1787 21.7143 38.3902 26.6569 38.5911 28.8522C38.718 30.2501 39.1431 30.2628 39.27 28.8522C39.4815 26.6442 39.6803 21.7016 39.6803 20.2635L44.5848 26.9128C45.4963 28.2346 42.0173 21.5092 40.3549 18.3114L40.3295 18.2734C41.1374 18.0428 41.7296 17.7721 42.1653 16.9769C43.2566 15.0248 41.4843 12.7471 39.3419 13.2547C37.7493 13.6269 38.314 16.04 39.9193 15.6805C40.0863 15.6424 40.0863 15.9618 39.1219 15.8729C36.9668 15.6614 33.1663 12.7154 28.8138 12.7915C26.83 12.8444 24.8272 13.3202 23.2621 14.3861L23.2685 14.384Z" fill="#DC1F27"/>
<path d="M23.2812 17.9794C23.628 18.6985 23.6407 19.3795 23.4356 20.2656C23.3975 20.4581 23.3319 20.6505 23.2812 20.8557C22.9597 19.8151 22.8455 18.9036 23.2812 17.9794ZM23.2685 14.384C22.3862 15.0067 21.6536 15.818 21.124 16.7591C20.8106 17.3455 20.6098 17.9853 20.5318 18.6456C20.5191 18.709 20.5191 18.7746 20.5064 18.838C20.4894 19.0342 20.4851 19.2314 20.4937 19.4281C20.5191 20.9826 21.1599 22.5476 21.8917 24.1275C20.1722 27.9026 17.2071 35.548 22.7905 37.7729H23.7274C26.8744 36.504 27.3355 33.5431 26.7835 30.4299C26.4916 28.9313 26.0531 27.4649 25.4744 26.052C24.9224 27.2723 24.4338 28.4144 23.9939 29.4359C23.9812 29.5903 25.4744 33.7757 23.2621 35.2118C21.0288 33.763 22.4162 29.4232 23.2621 27.2533V27.266C23.9812 25.5085 25.4574 22.5688 25.8423 20.8472C26.2273 19.1257 26.0348 17.6516 25.0725 16.1944C26.2489 15.5867 27.5553 15.2739 28.8794 15.2829C32.075 15.2173 34.9386 17.273 37.633 18.0809L37.5061 18.3114C35.8375 21.5092 32.3436 28.2346 33.2763 26.9128L38.1787 20.2635C38.1787 21.7143 38.3902 26.6569 38.5911 28.8522C38.718 30.2501 39.1431 30.2628 39.27 28.8522C39.4815 26.6442 39.6803 21.7016 39.6803 20.2635L44.5848 26.9128C45.4963 28.2346 42.0173 21.5092 40.3549 18.3114L40.3295 18.2734C41.1374 18.0428 41.7296 17.7721 42.1653 16.9769C43.2566 15.0248 41.4843 12.7471 39.3419 13.2547C37.7493 13.6269 38.314 16.04 39.9193 15.6805C40.0863 15.6424 40.0863 15.9618 39.1219 15.8729C36.9668 15.6614 33.1663 12.7154 28.8138 12.7915C26.83 12.8444 24.8272 13.3202 23.2621 14.3861L23.2685 14.384Z" fill="#DC1F27"/>
<path d="M59.725 26.2H65.6V28.5H56.875V11.125H59.725V26.2ZM67.0334 21.55C67.0334 20.1667 67.3167 18.9417 67.8834 17.875C68.4667 16.8083 69.2501 15.9833 70.2334 15.4C71.2334 14.8 72.3334 14.5 73.5334 14.5C74.6167 14.5 75.5584 14.7167 76.3584 15.15C77.1751 15.5667 77.8251 16.0917 78.3084 16.725V14.725H81.1834V28.5H78.3084V26.45C77.8251 27.1 77.1667 27.6417 76.3334 28.075C75.5001 28.5083 74.5501 28.725 73.4834 28.725C72.3001 28.725 71.2167 28.425 70.2334 27.825C69.2501 27.2083 68.4667 26.3583 67.8834 25.275C67.3167 24.175 67.0334 22.9333 67.0334 21.55ZM78.3084 21.6C78.3084 20.65 78.1084 19.825 77.7084 19.125C77.3251 18.425 76.8167 17.8917 76.1834 17.525C75.5501 17.1583 74.8667 16.975 74.1334 16.975C73.4001 16.975 72.7167 17.1583 72.0834 17.525C71.4501 17.875 70.9334 18.4 70.5334 19.1C70.1501 19.7833 69.9584 20.6 69.9584 21.55C69.9584 22.5 70.1501 23.3333 70.5334 24.05C70.9334 24.7667 71.4501 25.3167 72.0834 25.7C72.7334 26.0667 73.4167 26.25 74.1334 26.25C74.8667 26.25 75.5501 26.0667 76.1834 25.7C76.8167 25.3333 77.3251 24.8 77.7084 24.1C78.1084 23.3833 78.3084 22.55 78.3084 21.6ZM103.427 14.725L99.1518 28.5H96.1518L93.3768 18.325L90.6018 28.5H87.6018L83.3018 14.725H86.2018L89.0768 25.8L92.0018 14.725H94.9768L97.7768 25.75L100.627 14.725H103.427ZM117.957 14.725L109.507 34.975H106.557L109.357 28.275L103.932 14.725H107.107L110.982 25.225L115.007 14.725H117.957ZM132.732 21.275C132.732 21.7917 132.699 22.2583 132.632 22.675H122.107C122.191 23.775 122.599 24.6583 123.332 25.325C124.066 25.9917 124.966 26.325 126.032 26.325C127.566 26.325 128.649 25.6833 129.282 24.4H132.357C131.941 25.6667 131.182 26.7083 130.082 27.525C128.999 28.325 127.649 28.725 126.032 28.725C124.716 28.725 123.532 28.4333 122.482 27.85C121.449 27.25 120.632 26.4167 120.032 25.35C119.449 24.2667 119.157 23.0167 119.157 21.6C119.157 20.1833 119.441 18.9417 120.007 17.875C120.591 16.7917 121.399 15.9583 122.432 15.375C123.482 14.7917 124.682 14.5 126.032 14.5C127.332 14.5 128.491 14.7833 129.507 15.35C130.524 15.9167 131.316 16.7167 131.882 17.75C132.449 18.7667 132.732 19.9417 132.732 21.275ZM129.757 20.375C129.741 19.325 129.366 18.4833 128.632 17.85C127.899 17.2167 126.991 16.9 125.907 16.9C124.924 16.9 124.082 17.2167 123.382 17.85C122.682 18.4667 122.266 19.3083 122.132 20.375H129.757ZM138.387 16.725C138.804 16.025 139.354 15.4833 140.037 15.1C140.737 14.7 141.562 14.5 142.512 14.5V17.45H141.787C140.67 17.45 139.82 17.7333 139.237 18.3C138.67 18.8667 138.387 19.85 138.387 21.25V28.5H135.537V14.725H138.387V16.725ZM150.132 28.725C149.049 28.725 148.074 28.5333 147.207 28.15C146.357 27.75 145.682 27.2167 145.182 26.55C144.682 25.8667 144.415 25.1083 144.382 24.275H147.332C147.382 24.8583 147.657 25.35 148.157 25.75C148.674 26.1333 149.315 26.325 150.082 26.325C150.882 26.325 151.499 26.175 151.932 25.875C152.382 25.5583 152.607 25.1583 152.607 24.675C152.607 24.1583 152.357 23.775 151.857 23.525C151.374 23.275 150.599 23 149.532 22.7C148.499 22.4167 147.657 22.1417 147.007 21.875C146.357 21.6083 145.79 21.2 145.307 20.65C144.84 20.1 144.607 19.375 144.607 18.475C144.607 17.7417 144.824 17.075 145.257 16.475C145.69 15.8583 146.307 15.375 147.107 15.025C147.924 14.675 148.857 14.5 149.907 14.5C151.474 14.5 152.732 14.9 153.682 15.7C154.649 16.4833 155.165 17.5583 155.232 18.925H152.382C152.332 18.3083 152.082 17.8167 151.632 17.45C151.182 17.0833 150.574 16.9 149.807 16.9C149.057 16.9 148.482 17.0417 148.082 17.325C147.682 17.6083 147.482 17.9833 147.482 18.45C147.482 18.8167 147.615 19.125 147.882 19.375C148.149 19.625 148.474 19.825 148.857 19.975C149.24 20.1083 149.807 20.2833 150.557 20.5C151.557 20.7667 152.374 21.0417 153.007 21.325C153.657 21.5917 154.215 21.9917 154.682 22.525C155.149 23.0583 155.39 23.7667 155.407 24.65C155.407 25.4333 155.19 26.1333 154.757 26.75C154.324 27.3667 153.707 27.85 152.907 28.2C152.124 28.55 151.199 28.725 150.132 28.725Z" fill="#DC1F27"/>
<path d="M57.508 43.168H60.268V44.5H55.828V36.124H57.508V43.168ZM67.5158 41.032C67.5158 41.272 67.4998 41.488 67.4678 41.68H62.6078C62.6478 42.16 62.8158 42.536 63.1118 42.808C63.4078 43.08 63.7718 43.216 64.2038 43.216C64.8278 43.216 65.2718 42.948 65.5358 42.412H67.3478C67.1558 43.052 66.7878 43.58 66.2438 43.996C65.6998 44.404 65.0318 44.608 64.2398 44.608C63.5998 44.608 63.0238 44.468 62.5118 44.188C62.0078 43.9 61.6118 43.496 61.3238 42.976C61.0438 42.456 60.9038 41.856 60.9038 41.176C60.9038 40.488 61.0438 39.884 61.3238 39.364C61.6038 38.844 61.9958 38.444 62.4998 38.164C63.0038 37.884 63.5838 37.744 64.2398 37.744C64.8718 37.744 65.4358 37.88 65.9318 38.152C66.4358 38.424 66.8238 38.812 67.0958 39.316C67.3758 39.812 67.5158 40.384 67.5158 41.032ZM65.7758 40.552C65.7678 40.12 65.6118 39.776 65.3078 39.52C65.0038 39.256 64.6318 39.124 64.1918 39.124C63.7758 39.124 63.4238 39.252 63.1358 39.508C62.8558 39.756 62.6838 40.104 62.6198 40.552H65.7758ZM71.3461 37.744C71.8421 37.744 72.2781 37.844 72.6541 38.044C73.0301 38.236 73.3261 38.488 73.5421 38.8V37.852H75.2341V44.548C75.2341 45.164 75.1101 45.712 74.8621 46.192C74.6141 46.68 74.2421 47.064 73.7461 47.344C73.2501 47.632 72.6501 47.776 71.9461 47.776C71.0021 47.776 70.2261 47.556 69.6181 47.116C69.0181 46.676 68.6781 46.076 68.5981 45.316H70.2661C70.3541 45.62 70.5421 45.86 70.8301 46.036C71.1261 46.22 71.4821 46.312 71.8981 46.312C72.3861 46.312 72.7821 46.164 73.0861 45.868C73.3901 45.58 73.5421 45.14 73.5421 44.548V43.516C73.3261 43.828 73.0261 44.088 72.6421 44.296C72.2661 44.504 71.8341 44.608 71.3461 44.608C70.7861 44.608 70.2741 44.464 69.8101 44.176C69.3461 43.888 68.9781 43.484 68.7061 42.964C68.4421 42.436 68.3101 41.832 68.3101 41.152C68.3101 40.48 68.4421 39.884 68.7061 39.364C68.9781 38.844 69.3421 38.444 69.7981 38.164C70.2621 37.884 70.7781 37.744 71.3461 37.744ZM73.5421 41.176C73.5421 40.768 73.4621 40.42 73.3021 40.132C73.1421 39.836 72.9261 39.612 72.6541 39.46C72.3821 39.3 72.0901 39.22 71.7781 39.22C71.4661 39.22 71.1781 39.296 70.9141 39.448C70.6501 39.6 70.4341 39.824 70.2661 40.12C70.1061 40.408 70.0261 40.752 70.0261 41.152C70.0261 41.552 70.1061 41.904 70.2661 42.208C70.4341 42.504 70.6501 42.732 70.9141 42.892C71.1861 43.052 71.4741 43.132 71.7781 43.132C72.0901 43.132 72.3821 43.056 72.6541 42.904C72.9261 42.744 73.1421 42.52 73.3021 42.232C73.4621 41.936 73.5421 41.584 73.5421 41.176ZM76.4429 41.152C76.4429 40.48 76.5749 39.884 76.8389 39.364C77.1109 38.844 77.4749 38.444 77.9309 38.164C78.3949 37.884 78.9109 37.744 79.4789 37.744C79.9749 37.744 80.4069 37.844 80.7749 38.044C81.1509 38.244 81.4509 38.496 81.6749 38.8V37.852H83.3669V44.5H81.6749V43.528C81.4589 43.84 81.1589 44.1 80.7749 44.308C80.3989 44.508 79.9629 44.608 79.4669 44.608C78.9069 44.608 78.3949 44.464 77.9309 44.176C77.4749 43.888 77.1109 43.484 76.8389 42.964C76.5749 42.436 76.4429 41.832 76.4429 41.152ZM81.6749 41.176C81.6749 40.768 81.5949 40.42 81.4349 40.132C81.2749 39.836 81.0589 39.612 80.7869 39.46C80.5149 39.3 80.2229 39.22 79.9109 39.22C79.5989 39.22 79.3109 39.296 79.0469 39.448C78.7829 39.6 78.5669 39.824 78.3989 40.12C78.2389 40.408 78.1589 40.752 78.1589 41.152C78.1589 41.552 78.2389 41.904 78.3989 42.208C78.5669 42.504 78.7829 42.732 79.0469 42.892C79.3189 43.052 79.6069 43.132 79.9109 43.132C80.2229 43.132 80.5149 43.056 80.7869 42.904C81.0589 42.744 81.2749 42.52 81.4349 42.232C81.5949 41.936 81.6749 41.584 81.6749 41.176ZM86.6877 35.62V44.5H85.0077V35.62H86.6877ZM94.0989 44.584C93.5149 44.584 92.9869 44.484 92.5149 44.284C92.0509 44.084 91.6829 43.796 91.4109 43.42C91.1389 43.044 90.9989 42.6 90.9909 42.088H92.7909C92.8149 42.432 92.9349 42.704 93.1509 42.904C93.3749 43.104 93.6789 43.204 94.0629 43.204C94.4549 43.204 94.7629 43.112 94.9869 42.928C95.2109 42.736 95.3229 42.488 95.3229 42.184C95.3229 41.936 95.2469 41.732 95.0949 41.572C94.9429 41.412 94.7509 41.288 94.5189 41.2C94.2949 41.104 93.9829 41 93.5829 40.888C93.0389 40.728 92.5949 40.572 92.2509 40.42C91.9149 40.26 91.6229 40.024 91.3749 39.712C91.1349 39.392 91.0149 38.968 91.0149 38.44C91.0149 37.944 91.1389 37.512 91.3869 37.144C91.6349 36.776 91.9829 36.496 92.4309 36.304C92.8789 36.104 93.3909 36.004 93.9669 36.004C94.8309 36.004 95.5309 36.216 96.0669 36.64C96.6109 37.056 96.9109 37.64 96.9669 38.392H95.1189C95.1029 38.104 94.9789 37.868 94.7469 37.684C94.5229 37.492 94.2229 37.396 93.8469 37.396C93.5189 37.396 93.2549 37.48 93.0549 37.648C92.8629 37.816 92.7669 38.06 92.7669 38.38C92.7669 38.604 92.8389 38.792 92.9829 38.944C93.1349 39.088 93.3189 39.208 93.5349 39.304C93.7589 39.392 94.0709 39.496 94.4709 39.616C95.0149 39.776 95.4589 39.936 95.8029 40.096C96.1469 40.256 96.4429 40.496 96.6909 40.816C96.9389 41.136 97.0629 41.556 97.0629 42.076C97.0629 42.524 96.9469 42.94 96.7149 43.324C96.4829 43.708 96.1429 44.016 95.6949 44.248C95.2469 44.472 94.7149 44.584 94.0989 44.584ZM104.699 41.032C104.699 41.272 104.683 41.488 104.651 41.68H99.7914C99.8314 42.16 99.9994 42.536 100.295 42.808C100.591 43.08 100.955 43.216 101.387 43.216C102.011 43.216 102.455 42.948 102.719 42.412H104.531C104.339 43.052 103.971 43.58 103.427 43.996C102.883 44.404 102.215 44.608 101.423 44.608C100.783 44.608 100.207 44.468 99.6954 44.188C99.1914 43.9 98.7954 43.496 98.5074 42.976C98.2274 42.456 98.0874 41.856 98.0874 41.176C98.0874 40.488 98.2274 39.884 98.5074 39.364C98.7874 38.844 99.1794 38.444 99.6834 38.164C100.187 37.884 100.767 37.744 101.423 37.744C102.055 37.744 102.619 37.88 103.115 38.152C103.619 38.424 104.007 38.812 104.279 39.316C104.559 39.812 104.699 40.384 104.699 41.032ZM102.959 40.552C102.951 40.12 102.795 39.776 102.491 39.52C102.187 39.256 101.815 39.124 101.375 39.124C100.959 39.124 100.607 39.252 100.319 39.508C100.039 39.756 99.8674 40.104 99.8034 40.552H102.959ZM107.606 38.884C107.822 38.532 108.102 38.256 108.446 38.056C108.798 37.856 109.198 37.756 109.646 37.756V39.52H109.202C108.674 39.52 108.274 39.644 108.002 39.892C107.738 40.14 107.606 40.572 107.606 41.188V44.5H105.926V37.852H107.606V38.884ZM113.549 42.952L115.229 37.852H117.017L114.557 44.5H112.517L110.069 37.852H111.869L113.549 42.952ZM118.813 37.06C118.517 37.06 118.269 36.968 118.069 36.784C117.877 36.592 117.781 36.356 117.781 36.076C117.781 35.796 117.877 35.564 118.069 35.38C118.269 35.188 118.517 35.092 118.813 35.092C119.109 35.092 119.353 35.188 119.545 35.38C119.745 35.564 119.845 35.796 119.845 36.076C119.845 36.356 119.745 36.592 119.545 36.784C119.353 36.968 119.109 37.06 118.813 37.06ZM119.641 37.852V44.5H117.961V37.852H119.641ZM120.869 41.176C120.869 40.488 121.009 39.888 121.289 39.376C121.569 38.856 121.957 38.456 122.453 38.176C122.949 37.888 123.517 37.744 124.157 37.744C124.981 37.744 125.661 37.952 126.197 38.368C126.741 38.776 127.105 39.352 127.289 40.096H125.477C125.381 39.808 125.217 39.584 124.985 39.424C124.761 39.256 124.481 39.172 124.145 39.172C123.665 39.172 123.285 39.348 123.005 39.7C122.725 40.044 122.585 40.536 122.585 41.176C122.585 41.808 122.725 42.3 123.005 42.652C123.285 42.996 123.665 43.168 124.145 43.168C124.825 43.168 125.269 42.864 125.477 42.256H127.289C127.105 42.976 126.741 43.548 126.197 43.972C125.653 44.396 124.973 44.608 124.157 44.608C123.517 44.608 122.949 44.468 122.453 44.188C121.957 43.9 121.569 43.5 121.289 42.988C121.009 42.468 120.869 41.864 120.869 41.176ZM134.699 41.032C134.699 41.272 134.683 41.488 134.651 41.68H129.791C129.831 42.16 129.999 42.536 130.295 42.808C130.591 43.08 130.955 43.216 131.387 43.216C132.011 43.216 132.455 42.948 132.719 42.412H134.531C134.339 43.052 133.971 43.58 133.427 43.996C132.883 44.404 132.215 44.608 131.423 44.608C130.783 44.608 130.207 44.468 129.695 44.188C129.191 43.9 128.795 43.496 128.507 42.976C128.227 42.456 128.087 41.856 128.087 41.176C128.087 40.488 128.227 39.884 128.507 39.364C128.787 38.844 129.179 38.444 129.683 38.164C130.187 37.884 130.767 37.744 131.423 37.744C132.055 37.744 132.619 37.88 133.115 38.152C133.619 38.424 134.007 38.812 134.279 39.316C134.559 39.812 134.699 40.384 134.699 41.032ZM132.959 40.552C132.951 40.12 132.795 39.776 132.491 39.52C132.187 39.256 131.815 39.124 131.375 39.124C130.959 39.124 130.607 39.252 130.319 39.508C130.039 39.756 129.867 40.104 129.803 40.552H132.959ZM138.47 44.608C137.926 44.608 137.438 44.512 137.006 44.32C136.574 44.12 136.23 43.852 135.974 43.516C135.726 43.18 135.59 42.808 135.566 42.4H137.258C137.29 42.656 137.414 42.868 137.63 43.036C137.854 43.204 138.13 43.288 138.458 43.288C138.778 43.288 139.026 43.224 139.202 43.096C139.386 42.968 139.478 42.804 139.478 42.604C139.478 42.388 139.366 42.228 139.142 42.124C138.926 42.012 138.578 41.892 138.098 41.764C137.602 41.644 137.194 41.52 136.874 41.392C136.562 41.264 136.29 41.068 136.058 40.804C135.834 40.54 135.722 40.184 135.722 39.736C135.722 39.368 135.826 39.032 136.034 38.728C136.25 38.424 136.554 38.184 136.946 38.008C137.346 37.832 137.814 37.744 138.35 37.744C139.142 37.744 139.774 37.944 140.246 38.344C140.718 38.736 140.978 39.268 141.026 39.94H139.418C139.394 39.676 139.282 39.468 139.082 39.316C138.89 39.156 138.63 39.076 138.302 39.076C137.998 39.076 137.762 39.132 137.594 39.244C137.434 39.356 137.354 39.512 137.354 39.712C137.354 39.936 137.466 40.108 137.69 40.228C137.914 40.34 138.262 40.456 138.734 40.576C139.214 40.696 139.61 40.82 139.922 40.948C140.234 41.076 140.502 41.276 140.726 41.548C140.958 41.812 141.078 42.164 141.086 42.604C141.086 42.988 140.978 43.332 140.762 43.636C140.554 43.94 140.25 44.18 139.85 44.356C139.458 44.524 138.998 44.608 138.47 44.608Z" fill="#435065"/>
</svg>
