<svg width="76" height="102" viewBox="0 0 76 102" fill="none" xmlns="http://www.w3.org/2000/svg">
<path d="M62.7112 54.4564L38.0999 64.4539L13.4887 54.4564C13.2358 54.3537 13.0165 54.1809 12.8558 53.9578C12.6951 53.7347 12.5995 53.4702 12.5799 53.1946C12.5603 52.919 12.6174 52.6434 12.7449 52.3991C12.8723 52.1549 13.0648 51.952 13.3005 51.8135C15.1378 50.7337 16.633 49.1441 17.6105 47.2316C18.5879 45.3191 19.0068 43.1633 18.8181 41.0175L17.7874 29.2999V20.7095C17.7874 15.2435 19.9275 10.0014 23.7369 6.13643C27.5462 2.27143 32.7127 0.100098 38.0999 0.100098C43.4872 0.100098 48.6537 2.27146 52.4631 6.1365C56.2724 10.0015 58.4125 15.2437 58.4125 20.7097V29.3001L57.3818 41.0177C57.1931 43.1635 57.612 45.3193 58.5894 47.2318C59.5668 49.1443 61.0621 50.7339 62.8993 51.8137C63.135 51.9522 63.3276 52.1551 63.455 52.3993C63.5825 52.6435 63.6397 52.9192 63.6201 53.1948C63.6005 53.4704 63.5049 53.7349 63.3442 53.958C63.1835 54.1811 62.9642 54.3539 62.7114 54.4566L62.7112 54.4564Z" fill="#343C4A"/>
<path d="M75.5999 99.1137V74.2718C75.5999 72.0402 74.9824 69.8534 73.8176 67.9604C72.6528 66.0674 70.9875 64.5443 69.0114 63.5645L48.8824 53.5836C48.2237 53.257 47.6687 52.7494 47.2804 52.1184C46.8921 51.4875 46.6862 50.7586 46.6862 50.0148V43.2538H29.5138V50.0148C29.5138 50.7586 29.3079 51.4876 28.9197 52.1186C28.5314 52.7495 27.9763 53.2572 27.3176 53.5838L7.18863 63.5647C5.21254 64.5445 3.54729 66.0676 2.38248 67.9605C1.21767 69.8535 0.600108 72.0402 0.600098 74.2718V99.1137C0.600098 99.6405 0.806345 100.146 1.17347 100.518C1.54059 100.891 2.03852 101.1 2.55771 101.1H73.6425C74.1617 101.1 74.6596 100.891 75.0267 100.518C75.3939 100.146 75.6001 99.6405 75.6001 99.1137H75.5999Z" fill="#343C4A"/>
<path d="M48.8824 53.5838C48.2237 53.2572 47.6687 52.7495 47.2804 52.1184C46.8921 51.4875 46.6862 50.7586 46.6862 50.0148V43.2538H29.5138V50.0148C29.5138 50.7586 29.3079 51.4876 28.9197 52.1186C28.5314 52.7495 27.9763 53.2572 27.3176 53.5838C27.2618 54.4379 27.1549 57.6157 29.3482 60.4459C32.5227 64.5419 37.6593 64.2241 38.1001 64.1891C40.5372 64.1328 42.8894 63.2703 44.7989 61.7328C48.4919 58.7099 48.8362 54.3281 48.8824 53.5838Z" fill="#F9BEAC"/>
<path d="M52.8188 85.3264L47.7562 87.8128C47.6104 87.8844 47.4516 87.9246 47.2897 87.931C47.1278 87.9373 46.9664 87.9096 46.8156 87.8495C46.6647 87.7895 46.5278 87.6985 46.4133 87.5821C46.2989 87.4658 46.2093 87.3267 46.1504 87.1736L37.404 64.4461L38.0999 63.9198L43.2907 62.2724L53.3675 83.7416C53.5009 84.0258 53.518 84.3519 53.4152 84.6489C53.3124 84.9459 53.098 85.1895 52.8188 85.3266V85.3264Z" fill="#F9F7F8"/>
<path d="M23.381 85.3264L28.4436 87.8128C28.5894 87.8844 28.7483 87.9246 28.9102 87.931C29.0721 87.9373 29.2335 87.9096 29.3843 87.8495C29.5351 87.7895 29.6721 87.6985 29.7865 87.5821C29.901 87.4658 29.9905 87.3267 30.0494 87.1736L38.7959 64.4461L38.0999 63.9198L32.9091 62.2724L22.8323 83.7416C22.699 84.0258 22.6818 84.3519 22.7846 84.6489C22.8874 84.9459 23.1018 85.1895 23.381 85.3266V85.3264Z" fill="#F9F7F8"/>
<path d="M48.7493 52.3958C48.6087 52.2845 48.4407 52.2143 48.2636 52.1929C48.0865 52.1714 47.907 52.1995 47.7444 52.2741C47.5819 52.3487 47.4426 52.467 47.3416 52.6161C47.2405 52.7652 47.1816 52.9396 47.1711 53.1202C47.0635 55.024 46.5017 56.8727 45.5339 58.5073C43.0587 62.6597 38.9025 63.7297 38.0999 63.9196L50.3947 68.9984C50.6281 69.0948 50.8832 69.1241 51.1319 69.0829C51.3807 69.0418 51.6134 68.9318 51.8046 68.7652L51.8085 68.7616C52.8254 67.8752 53.6356 66.7706 54.1805 65.5277C54.7255 64.2848 54.9915 62.9346 54.9594 61.5746C54.9272 60.2147 54.5978 58.879 53.9949 57.664C53.392 56.4489 52.5306 55.385 51.4729 54.5489L48.7493 52.3958ZM27.4505 52.3958C27.5912 52.2845 27.7591 52.2143 27.9362 52.1929C28.1133 52.1714 28.2929 52.1995 28.4554 52.2741C28.6179 52.3487 28.7572 52.467 28.8583 52.6161C28.9593 52.7652 29.0183 52.9396 29.0287 53.1202C29.1363 55.024 29.6982 56.8727 30.6659 58.5073C33.1411 62.6597 37.2975 63.7297 38.0999 63.9196L25.8051 68.9984C25.5717 69.0948 25.3166 69.1241 25.0679 69.0829C24.8192 69.0418 24.5864 68.9318 24.3953 68.7652L24.3914 68.7616C23.3744 67.8752 22.5642 66.7706 22.0193 65.5277C21.4744 64.2848 21.2084 62.9346 21.2405 61.5746C21.2726 60.2147 21.602 58.879 22.2049 57.664C22.8079 56.4489 23.6693 55.385 24.7269 54.5489L27.4505 52.3958Z" fill="#EAEAEA"/>
<path d="M46.6862 50.0148V43.2538H29.5138V50.0148C29.5131 50.2601 29.49 50.5047 29.4448 50.7457C32.2624 53.1169 35.8095 54.4123 39.4703 54.4069C42.2444 54.4101 44.9695 53.6653 47.3667 52.2487C46.9239 51.5904 46.6868 50.812 46.6862 50.015L46.6862 50.0148Z" fill="#E58A7B"/>
<path d="M22.3662 34.2719V21.7719C22.3664 21.5871 22.4029 21.4042 22.4735 21.2339C22.5441 21.0636 22.6474 20.9092 22.7774 20.7799C22.9074 20.6505 23.0615 20.5486 23.2307 20.4803C23.3999 20.412 23.5809 20.3786 23.7629 20.3819C27.7728 20.4469 31.7686 19.8835 35.609 18.7115C38.9618 17.6863 42.1628 16.2068 45.1256 14.313C45.38 14.1516 45.6857 14.0953 45.9798 14.1558C46.2739 14.2164 46.5339 14.3891 46.7062 14.6383C48.3181 16.9535 50.5016 18.7979 53.0378 19.9865C53.2754 20.0977 53.4767 20.2757 53.6177 20.4993C53.7587 20.7229 53.8336 20.9829 53.8336 21.2483V34.2719C53.8336 38.5057 52.176 42.5662 49.2253 45.56C46.2747 48.5537 42.2727 50.2356 38.0999 50.2356C33.9271 50.2356 29.9251 48.5537 26.9745 45.56C24.0238 42.5662 22.3662 38.5057 22.3662 34.2719Z" fill="#F9BEAC"/>
<path d="M38.1003 44.6166C37.0361 44.6151 35.9853 44.3752 35.0229 43.914C34.9402 43.8759 34.8658 43.8214 34.804 43.7538C34.7422 43.6861 34.6943 43.6067 34.663 43.5201C34.6318 43.4335 34.6179 43.3414 34.622 43.2493C34.6262 43.1572 34.6484 43.0668 34.6873 42.9835C34.7262 42.9001 34.7811 42.8255 34.8487 42.7639C34.9163 42.7023 34.9954 42.6549 35.0812 42.6246C35.1671 42.5943 35.258 42.5816 35.3487 42.5873C35.4394 42.593 35.5281 42.6169 35.6096 42.6577C36.3884 43.0309 37.2388 43.225 38.1001 43.2262H38.1177C38.9729 43.2223 39.8169 43.0281 40.5902 42.6575C40.7544 42.5786 40.9428 42.569 41.114 42.631C41.2851 42.693 41.425 42.8214 41.5028 42.9881C41.5807 43.1547 41.5901 43.3458 41.529 43.5195C41.4679 43.6931 41.3413 43.8351 41.1771 43.914C40.2215 44.3718 39.1786 44.6116 38.1218 44.6166H38.1003ZM40.5869 35.4074V36.8617C40.5868 37.5307 40.3249 38.1723 39.8586 38.6453C39.3924 39.1184 38.7601 39.3842 38.1007 39.3842H38.0993C37.4399 39.3842 36.8076 39.1185 36.3413 38.6454C35.875 38.1724 35.613 37.5307 35.613 36.8617V35.4074C35.613 35.2494 35.6749 35.0978 35.785 34.986C35.8951 34.8743 36.0445 34.8115 36.2003 34.8115H39.9996C40.1553 34.8115 40.3047 34.8743 40.4149 34.986C40.525 35.0978 40.5869 35.2494 40.5869 35.4074ZM53.8336 25.2996H57.0422C57.4056 25.2996 57.7541 25.4461 58.0111 25.7069C58.2681 25.9676 58.4125 26.3213 58.4125 26.69V28.8073C58.4125 30.0395 57.9301 31.2212 57.0714 32.0924C56.2127 32.9637 55.048 33.4531 53.8336 33.4531V25.2996ZM22.3662 33.4531C21.1518 33.4531 19.9872 32.9637 19.1285 32.0924C18.2698 31.2212 17.7874 30.0395 17.7874 28.8073V26.69C17.7874 26.3213 17.9317 25.9676 18.1887 25.7069C18.4457 25.4461 18.7943 25.2996 19.1577 25.2996H22.3662V33.4531Z" fill="#E58A7B"/>
<path d="M47.2118 27.3036C47.1228 27.3035 47.0346 27.2858 46.9522 27.2515C46.2667 26.967 45.5307 26.8292 44.7902 26.8467C44.1408 26.8632 43.4997 27.0003 42.899 27.2513C42.7309 27.3214 42.5422 27.3208 42.3746 27.2497C42.2069 27.1786 42.0739 27.0428 42.0049 26.8723C41.9358 26.7017 41.9364 26.5103 42.0065 26.3401C42.0765 26.17 42.2104 26.0351 42.3785 25.965C44.01 25.2844 45.8403 25.2844 47.4718 25.965C47.6187 26.0261 47.7402 26.137 47.8155 26.2789C47.8907 26.4207 47.9151 26.5847 47.8844 26.7428C47.8537 26.9009 47.7698 27.0432 47.6472 27.1455C47.5245 27.2478 47.3706 27.3037 47.2118 27.3036ZM44.9253 30.8206C44.7436 30.8206 44.5693 30.7474 44.4408 30.617C44.3123 30.4866 44.2402 30.3098 44.2402 30.1254V28.649C44.2402 28.4647 44.3123 28.2878 44.4408 28.1575C44.5693 28.0271 44.7436 27.9539 44.9253 27.9539C45.107 27.9539 45.2813 28.0271 45.4098 28.1575C45.5383 28.2878 45.6105 28.4647 45.6105 28.649V30.1254C45.6105 30.3098 45.5383 30.4866 45.4098 30.617C45.2813 30.7474 45.107 30.8206 44.9253 30.8206ZM33.5608 27.3036C33.4718 27.3035 33.3836 27.2858 33.3012 27.2515C32.6158 26.967 31.8798 26.8292 31.1394 26.8467C30.4899 26.8632 29.8488 27.0003 29.248 27.2513C29.1647 27.286 29.0756 27.3037 28.9856 27.3034C28.8956 27.3031 28.8066 27.2848 28.7236 27.2496C28.6406 27.2144 28.5652 27.163 28.5018 27.0982C28.4383 27.0334 28.3881 26.9566 28.3539 26.8722C28.2849 26.7016 28.2856 26.5102 28.3556 26.3401C28.4257 26.17 28.5595 26.0351 28.7277 25.965C30.3592 25.2844 32.1895 25.2844 33.821 25.965C33.9679 26.0261 34.0894 26.1371 34.1647 26.2789C34.2399 26.4208 34.2643 26.5848 34.2336 26.7429C34.2028 26.901 34.1189 27.0433 33.9962 27.1456C33.8735 27.2479 33.7196 27.3037 33.5608 27.3036ZM31.2743 30.8206C31.0926 30.8206 30.9183 30.7474 30.7898 30.617C30.6613 30.4866 30.5891 30.3098 30.5891 30.1254V28.649C30.5891 28.4647 30.6613 28.2878 30.7898 28.1575C30.9183 28.0271 31.0926 27.9539 31.2743 27.9539C31.456 27.9539 31.6303 28.0271 31.7588 28.1575C31.8873 28.2878 31.9595 28.4647 31.9595 28.649V30.1254C31.9595 30.3098 31.8873 30.4866 31.7588 30.617C31.6303 30.7474 31.456 30.8206 31.2743 30.8206Z" fill="#343C4A"/>
<path d="M38.0999 25.4589C37.9182 25.4589 37.7439 25.3857 37.6154 25.2553C37.4869 25.125 37.4148 24.9481 37.4148 24.7638V23.2874C37.4148 23.103 37.4869 22.9262 37.6154 22.7958C37.7439 22.6655 37.9182 22.5922 38.0999 22.5922C38.2816 22.5922 38.4559 22.6655 38.5844 22.7958C38.7129 22.9262 38.7851 23.103 38.7851 23.2874V24.7638C38.7851 24.9481 38.7129 25.125 38.5844 25.2553C38.4559 25.3857 38.2816 25.4589 38.0999 25.4589Z" fill="#D34342"/>
<path d="M64.2798 101.1C64.1706 101.1 64.063 101.073 63.9659 101.023C63.8689 100.972 63.7852 100.898 63.7219 100.808C63.6585 100.718 63.6174 100.613 63.6018 100.504C63.5863 100.394 63.5968 100.282 63.6324 100.177C64.9699 96.2345 65.0143 91.9585 63.7591 87.988L63.3147 86.5917C62.9142 85.3335 62.7101 84.0196 62.7098 82.6974V79.0924C62.7098 78.9081 62.782 78.7312 62.9105 78.6009C63.039 78.4705 63.2133 78.3972 63.395 78.3972C63.5767 78.3972 63.751 78.4705 63.8795 78.6009C64.008 78.7312 64.0801 78.9081 64.0801 79.0924V82.6974C64.0805 83.8747 64.2622 85.0446 64.6189 86.1648L65.0632 87.5607C66.4091 91.8186 66.3615 96.404 64.9274 100.632C64.8807 100.769 64.7933 100.887 64.6773 100.971C64.5612 101.055 64.4223 101.1 64.2798 101.1ZM11.9215 101.1C11.7792 101.1 11.6404 101.055 11.5244 100.971C11.4084 100.887 11.321 100.769 11.2744 100.633C9.83831 96.4046 9.79003 91.8186 11.1367 87.5605L11.5807 86.1642C11.9373 85.0442 12.119 83.8745 12.1193 82.6974V79.0924C12.1193 78.9081 12.1915 78.7312 12.3199 78.6009C12.4484 78.4705 12.6227 78.3972 12.8044 78.3972C12.9861 78.3972 13.1604 78.4705 13.2889 78.6009C13.4174 78.7312 13.4896 78.9081 13.4896 79.0924V82.6974C13.4894 84.0194 13.2854 85.3331 12.8849 86.5911L12.4405 87.9878C11.1849 91.9583 11.2299 96.2347 12.5689 100.177C12.6046 100.282 12.6151 100.394 12.5995 100.503C12.584 100.613 12.5428 100.717 12.4795 100.808C12.4162 100.898 12.3325 100.972 12.2354 101.023C12.1384 101.073 12.0308 101.1 11.9215 101.1Z" fill="#243047"/>
</svg>
